<?xml version='1.0' encoding='UTF-8'?>
<svg width="21mm" height="21mm" version="1.1" viewBox="0 0 21 21" xmlns="http://www.w3.org/2000/svg"><rect fill="white" x="0" y="0" width="100%" height="100%" /><path d="M0,0H1V1H0zM1,0H2V1H1zM2,0H3V1H2zM3,0H4V1H3zM4,0H5V1H4zM5,0H6V1H5zM6,0H7V1H6zM8,0H9V1H8zM14,0H15V1H14zM15,0H16V1H15zM16,0H17V1H16zM17,0H18V1H17zM18,0H19V1H18zM19,0H20V1H19zM20,0H21V1H20zM0,1H1V2H0zM6,1H7V2H6zM9,1H10V2H9zM11,1H12V2H11zM14,1H15V2H14zM20,1H21V2H20zM0,2H1V3H0zM2,2H3V3H2zM3,2H4V3H3zM4,2H5V3H4zM6,2H7V3H6zM10,2H11V3H10zM14,2H15V3H14zM16,2H17V3H16zM17,2H18V3H17zM18,2H19V3H18zM20,2H21V3H20zM0,3H1V4H0zM2,3H3V4H2zM3,3H4V4H3zM4,3H5V4H4zM6,3H7V4H6zM9,3H10V4H9zM10,3H11V4H10zM14,3H15V4H14zM16,3H17V4H16zM17,3H18V4H17zM18,3H19V4H18zM20,3H21V4H20zM0,4H1V5H0zM2,4H3V5H2zM3,4H4V5H3zM4,4H5V5H4zM6,4H7V5H6zM9,4H10V5H9zM11,4H12V5H11zM14,4H15V5H14zM16,4H17V5H16zM17,4H18V5H17zM18,4H19V5H18zM20,4H21V5H20zM0,5H1V6H0zM6,5H7V6H6zM14,5H15V6H14zM20,5H21V6H20zM0,6H1V7H0zM1,6H2V7H1zM2,6H3V7H2zM3,6H4V7H3zM4,6H5V7H4zM5,6H6V7H5zM6,6H7V7H6zM8,6H9V7H8zM10,6H11V7H10zM12,6H13V7H12zM14,6H15V7H14zM15,6H16V7H15zM16,6H17V7H16zM17,6H18V7H17zM18,6H19V7H18zM19,6H20V7H19zM20,6H21V7H20zM8,7H9V8H8zM9,7H10V8H9zM10,7H11V8H10zM11,7H12V8H11zM12,7H13V8H12zM0,8H1V9H0zM1,8H2V9H1zM3,8H4V9H3zM4,8H5V9H4zM6,8H7V9H6zM9,8H10V9H9zM10,8H11V9H10zM11,8H12V9H11zM12,8H13V9H12zM14,8H15V9H14zM20,8H21V9H20zM1,9H2V10H1zM2,9H3V10H2zM7,9H8V10H7zM8,9H9V10H8zM10,9H11V10H10zM12,9H13V10H12zM13,9H14V10H13zM18,9H19V10H18zM1,10H2V11H1zM2,10H3V11H2zM4,10H5V11H4zM6,10H7V11H6zM8,10H9V11H8zM11,10H12V11H11zM16,10H17V11H16zM17,10H18V11H17zM18,10H19V11H18zM0,11H1V12H0zM2,11H3V12H2zM3,11H4V12H3zM5,11H6V12H5zM7,11H8V12H7zM8,11H9V12H8zM9,11H10V12H9zM10,11H11V12H10zM11,11H12V12H11zM13,11H14V12H13zM16,11H17V12H16zM18,11H19V12H18zM19,11H20V12H19zM5,12H6V13H5zM6,12H7V13H6zM7,12H8V13H7zM9,12H10V13H9zM12,12H13V13H12zM13,12H14V13H13zM14,12H15V13H14zM16,12H17V13H16zM18,12H19V13H18zM19,12H20V13H19zM20,12H21V13H20zM8,13H9V14H8zM10,13H11V14H10zM11,13H12V14H11zM12,13H13V14H12zM15,13H16V14H15zM16,13H17V14H16zM17,13H18V14H17zM20,13H21V14H20zM0,14H1V15H0zM1,14H2V15H1zM2,14H3V15H2zM3,14H4V15H3zM4,14H5V15H4zM5,14H6V15H5zM6,14H7V15H6zM10,14H11V15H10zM15,14H16V15H15zM20,14H21V15H20zM0,15H1V16H0zM6,15H7V16H6zM9,15H10V16H9zM10,15H11V16H10zM11,15H12V16H11zM12,15H13V16H12zM14,15H15V16H14zM16,15H17V16H16zM18,15H19V16H18zM20,15H21V16H20zM0,16H1V17H0zM2,16H3V17H2zM3,16H4V17H3zM4,16H5V17H4zM6,16H7V17H6zM8,16H9V17H8zM9,16H10V17H9zM10,16H11V17H10zM11,16H12V17H11zM12,16H13V17H12zM13,16H14V17H13zM14,16H15V17H14zM15,16H16V17H15zM16,16H17V17H16zM17,16H18V17H17zM19,16H20V17H19zM0,17H1V18H0zM2,17H3V18H2zM3,17H4V18H3zM4,17H5V18H4zM6,17H7V18H6zM8,17H9V18H8zM9,17H10V18H9zM11,17H12V18H11zM13,17H14V18H13zM14,17H15V18H14zM16,17H17V18H16zM17,17H18V18H17zM18,17H19V18H18zM0,18H1V19H0zM2,18H3V19H2zM3,18H4V19H3zM4,18H5V19H4zM6,18H7V19H6zM9,18H10V19H9zM11,18H12V19H11zM14,18H15V19H14zM15,18H16V19H15zM16,18H17V19H16zM19,18H20V19H19zM20,18H21V19H20zM0,19H1V20H0zM6,19H7V20H6zM8,19H9V20H8zM11,19H12V20H11zM12,19H13V20H12zM13,19H14V20H13zM17,19H18V20H17zM18,19H19V20H18zM19,19H20V20H19zM0,20H1V21H0zM1,20H2V21H1zM2,20H3V21H2zM3,20H4V21H3zM4,20H5V21H4zM5,20H6V21H5zM6,20H7V21H6zM8,20H9V21H8zM9,20H10V21H9zM10,20H11V21H10zM11,20H12V21H11zM13,20H14V21H13zM15,20H16V21H15zM16,20H17V21H16zM18,20H19V21H18zM19,20H20V21H19z" id="qr-path" fill="#000000" fill-opacity="1" fill-rule="nonzero" stroke="none" /></svg>